# xmcd CD database file
#
# Track frame offsets:
#	150
#	17640
#	30955
#	43697
#	54820
#	69512
#	82030
#	96837
#	105537
#	118715
#
# Disc length: 1842 seconds
#
# Revision: 3
# Processed by: cddbd v1.5.2PL0 Copyright (c) Steve Scherf et al.
# Submitted via: CDex 1.51
#
DISCID=7307300a
DTITLE=Tennessee Ernie Ford - Country Gospel Classics Volume 1
DYEAR=1991
DGENRE=Gospel
TTITLE0=What A Friend We Have In Jesus
TTITLE1=Must Jesus Bear The Cross Alone?
TTITLE2=In The Garden
TTITLE3=Whispering Hope
TTITLE4=His Eye Is On The Sparrow
TTITLE5=Rock Of Ages
TTITLE6=Were You There?
TTITLE7=All Hail The Power
TTITLE8=The Old Rugged Cross
TTITLE9=Did You Think To Pray?
EXTD=YEAR: 1991
EXTT0=
EXTT1=
EXTT2=
EXTT3=
EXTT4=
EXTT5=
EXTT6=
EXTT7=
EXTT8=
EXTT9=
PLAYORDER=
